<svg xmlns="http://www.w3.org/2000/svg" viewBox="0 0 24 24" width="24" height="24" fill="none" stroke="currentColor" stroke-width="1.8" stroke-linecap="round" stroke-linejoin="round">
  <circle cx="11" cy="8" r="3"/>
  <path d="M4.5 19c.2-3.3 3.5-5 6.5-5 1.4 0 2.8.3 4 1" vector-effect="non-scaling-stroke"/>
  <path d="M15.5 7.5l2-1 2 1V12a3.5 3.5 0 0 1-2 3 3.5 3.5 0 0 1-2-3V7.5z" fill="currentColor" opacity=".08"/>
  <path d="M15.5 7.5l2-1 2 1V12a3.5 3.5 0 0 1-2 3 3.5 3.5 0 0 1-2-3V7.5z"/>
  <path d="M18 10.5v1.2" />
</svg>